{
  "accessors": [
    {
      "bufferView": 2,
      "componentType": 5126,
      "count": 9136,
      "max": [
        0.9872310161590576,
        0.9975767135620117,
        0.9872307181358337
      ],
      "min": [
        -0.9872304201126099,
        -0.9975767135620117,
        -0.9872304201126099
      ],
      "type": "VEC3"
    },
    {
      "bufferView": 2,
      "byteOffset": 109632,
      "componentType": 5126,
      "count": 9136,
      "max": [
        1.0,
        1.0,
        1.0
      ],
      "min": [
        -1.0,
        -1.0,
        -1.0
      ],
      "type": "VEC3"
    },
    {
      "bufferView": 1,
      "componentType": 5126,
      "count": 9136,
      "max": [
        1.000000238418579,
        1.0000001192092896
      ],
      "min": [
        0.0,
        0.0
      ],
      "type": "VEC2"
    },
    {
      "bufferView": 0,
      "componentType": 5125,
      "count": 47616,
      "type": "SCALAR"
    },
    {
      "bufferView": 2,
      "byteOffset": 219264,
      "componentType": 5126,
      "count": 55231,
      "max": [
        16.073469161987305,
        16.404401779174805,
        10.262563705444336
      ],
      "min": [
        -13.368779182434082,
        -43.09903335571289,
        -18.32078742980957
      ],
      "type": "VEC3"
    },
    {
      "bufferView": 2,
      "byteOffset": 882036,
      "componentType": 5126,
      "count": 55231,
      "max": [
        0.9999423027038574,
        0.999976396560669,
        0.9999911785125732
      ],
      "min": [
        -0.9999794960021973,
        -0.9999167919158936,
        -0.9999580383300781
      ],
      "type": "VEC3"
    },
    {
      "bufferView": 1,
      "byteOffset": 73088,
      "componentType": 5126,
      "count": 55231,
      "max": [
        0.9965535402297974,
        0.9999998807907104
      ],
      "min": [
        0.0,
        0.0
      ],
      "type": "VEC2"
    },
    {
      "bufferView": 0,
      "byteOffset": 190464,
      "componentType": 5125,
      "count": 249408,
      "type": "SCALAR"
    },
    {
      "bufferView": 2,
      "byteOffset": 1544808,
      "componentType": 5126,
      "count": 675,
      "max": [
        0.004626945126801729,
        -3.6026453971862793,
        -0.24603033065795898
      ],
      "min": [
        -0.506684422492981,
        -4.1645612716674805,
        -0.757341742515564
      ],
      "type": "VEC3"
    },
    {
      "bufferView": 2,
      "byteOffset": 1552908,
      "componentType": 5126,
      "count": 675,
      "max": [
        1.0,
        1.0,
        1.0
      ],
      "min": [
        -1.0,
        -1.0,
        -1.0
      ],
      "type": "VEC3"
    },
    {
      "bufferView": 1,
      "byteOffset": 514936,
      "componentType": 5126,
      "count": 675,
      "max": [
        1.0000001192092896,
        1.0000001192092896
      ],
      "min": [
        0.0,
        0.0
      ],
      "type": "VEC2"
    },
    {
      "bufferView": 0,
      "byteOffset": 1188096,
      "componentType": 5125,
      "count": 2688,
      "type": "SCALAR"
    }
  ],
  "asset": {
    "extras": {
      "author": "Alain Sorazu (https://sketchfab.com/alainsorazu)",
      "license": "CC-BY-SA-4.0 (http://creativecommons.org/licenses/by-sa/4.0/)",
      "source": "https://sketchfab.com/3d-models/multipolar-neuron-6834b20a2bc6473d85737587a20ff84f",
      "title": "Multipolar neuron"
    },
    "generator": "Sketchfab-13.23.0",
    "version": "2.0"
  },
  "bufferViews": [
    {
      "buffer": 0,
      "byteLength": 1198848,
      "name": "floatBufferViews",
      "target": 34963
    },
    {
      "buffer": 0,
      "byteLength": 520336,
      "byteOffset": 1198848,
      "byteStride": 8,
      "name": "floatBufferViews",
      "target": 34962
    },
    {
      "buffer": 0,
      "byteLength": 1561008,
      "byteOffset": 1719184,
      "byteStride": 12,
      "name": "floatBufferViews",
      "target": 34962
    }
  ],
  "buffers": [
    {
      "byteLength": 3280192,
      "uri": "scene.bin"
    }
  ],
  "extensionsUsed": [
    "KHR_materials_transmission"
  ],
  "materials": [
    {
      "doubleSided": true,
      "name": "Nucleus",
      "pbrMetallicRoughness": {
        "baseColorFactor": [
          0.178213,
          0.136383,
          0.231811,
          1.0
        ],
        "metallicFactor": 0.0,
        "roughnessFactor": 0.5
      }
    },
    {
      "alphaMode": "BLEND",
      "doubleSided": true,
      "extensions": {
        "KHR_materials_transmission": {
          "transmissionFactor": 0.5
        }
      },
      "name": "Neuron",
      "pbrMetallicRoughness": {
        "baseColorFactor": [
          0.30440605199429893,
          0.7258353627720793,
          0.7008047487493377,
          0.25
        ],
        "metallicFactor": 0.0,
        "roughnessFactor": 0.3
      }
    },
    {
      "doubleSided": true,
      "emissiveFactor": [
        1.0,
        1.0,
        1.0
      ],
      "name": "Light"
    }
  ],
  "meshes": [
    {
      "name": "Object_0",
      "primitives": [
        {
          "attributes": {
            "NORMAL": 1,
            "POSITION": 0,
            "TEXCOORD_0": 2
          },
          "indices": 3,
          "material": 0,
          "mode": 4
        }
      ]
    },
    {
      "name": "Object_1",
      "primitives": [
        {
          "attributes": {
            "NORMAL": 5,
            "POSITION": 4,
            "TEXCOORD_0": 6
          },
          "indices": 7,
          "material": 1,
          "mode": 4
        }
      ]
    },
    {
      "name": "Object_2",
      "primitives": [
        {
          "attributes": {
            "NORMAL": 9,
            "POSITION": 8,
            "TEXCOORD_0": 10
          },
          "indices": 11,
          "material": 2,
          "mode": 4
        }
      ]
    }
  ],
  "nodes": [
    {
      "children": [
        1
      ],
      "matrix": [
        0.05000000074505806,
        0.0,
        0.0,
        0.0,
        0.0,
        1.1102230411687688e-17,
        -0.05000000074505806,
        0.0,
        0.0,
        0.05000000074505806,
        1.1102230411687688e-17,
        0.0,
        0.0,
        0.0,
        0.0,
        1.0
      ],
      "name": "Sketchfab_model"
    },
    {
      "children": [
        2
      ],
      "name": "root"
    },
    {
      "children": [
        3
      ],
      "matrix": [
        1.0,
        0.0,
        0.0,
        0.0,
        0.0,
        2.220446049250313e-16,
        1.0,
        0.0,
        0.0,
        -1.0,
        2.220446049250313e-16,
        0.0,
        0.0,
        0.0,
        0.0,
        1.0
      ],
      "name": "GLTF_SceneRootNode"
    },
    {
      "children": [
        4,
        5,
        6
      ],
      "matrix": [
        0.26499632000923157,
        0.0,
        0.0,
        0.0,
        0.0,
        0.26499634981155396,
        0.0,
        0.0,
        0.0,
        0.0,
        0.2649962902069092,
        0.0,
        0.09561321139335632,
        8.392000198364258,
        0.3002043664455414,
        1.0
      ],
      "name": "Neuron_0"
    },
    {
      "mesh": 0,
      "name": "Object_4"
    },
    {
      "mesh": 1,
      "name": "Object_5"
    },
    {
      "mesh": 2,
      "name": "Object_6"
    }
  ],
  "scene": 0,
  "scenes": [
    {
      "name": "Sketchfab_Scene",
      "nodes": [
        0
      ]
    }
  ]
}
